<svg height="504pt" viewBox="0 -56 504 504" width="504pt" xmlns="http://www.w3.org/2000/svg"><path d="m482.300781 322.992188h-460.601562c-9.773438 0-17.699219-7.925782-17.699219-17.699219v-283.59375c0-9.773438 7.925781-17.699219 17.699219-17.699219h460.601562c9.773438 0 17.699219 7.925781 17.699219 17.699219v283.59375c0 9.773437-7.925781 17.699219-17.699219 17.699219zm0 0" fill="#f4efed"/><path d="m482.300781 4h-20c9.773438 0 17.699219 7.925781 17.699219 17.699219v283.59375c0 9.773437-7.925781 17.699219-17.699219 17.699219h20c9.773438 0 17.699219-7.925782 17.699219-17.699219v-283.59375c0-9.773438-7.925781-17.699219-17.699219-17.699219zm0 0" fill="#d6d1cf"/><path d="m21.699219 322.992188h20c-9.773438 0-17.699219-7.925782-17.699219-17.699219v-283.59375c0-9.773438 7.925781-17.699219 17.699219-17.699219h-20c-9.773438 0-17.699219 7.925781-17.699219 17.699219v283.59375c0 9.773437 7.925781 17.699219 17.699219 17.699219zm0 0" fill="#fff"/><path d="m482.300781 326.992188h-460.601562c-11.964844 0-21.699219-9.734376-21.699219-21.699219v-283.59375c0-11.964844 9.734375-21.699219 21.699219-21.699219h460.601562c11.964844 0 21.699219 9.734375 21.699219 21.699219v283.59375c0 11.964843-9.734375 21.699219-21.699219 21.699219zm-460.601562-318.992188c-7.554688 0-13.699219 6.144531-13.699219 13.699219v283.59375c0 7.554687 6.144531 13.699219 13.699219 13.699219h460.601562c7.554688 0 13.699219-6.144532 13.699219-13.699219v-283.59375c0-7.554688-6.144531-13.699219-13.699219-13.699219zm0 0" fill="#690589"/><path d="m413.800781 388.710938h-323.601562v-23.707032c0-9.777344 7.921875-17.699218 17.699219-17.699218h288.203124c9.777344 0 17.699219 7.921874 17.699219 17.699218zm0 0" fill="#7bac51"/><path d="m396.101562 347.304688h-20c9.777344 0 17.699219 7.921874 17.699219 17.699218v23.710938h20v-23.710938c0-9.777344-7.921875-17.699218-17.699219-17.699218zm0 0" fill="#5d8e33"/><path d="m107.898438 347.304688h20c-9.777344 0-17.699219 7.921874-17.699219 17.699218v23.710938h-20v-23.710938c0-9.777344 7.921875-17.699218 17.699219-17.699218zm0 0" fill="#99ca6f"/><path d="m157.007812 322.992188h189.984376v24.3125h-189.984376zm0 0" fill="#5d8e33"/><path d="m20 78.40625c-2.207031 0-4-1.789062-4-4v-24c0-2.207031 1.792969-4 4-4s4 1.792969 4 4v24c0 2.210938-1.792969 4-4 4zm0 0" fill="#690589"/><path d="m413.800781 392.710938h-323.601562c-2.210938 0-4-1.789063-4-4v-23.707032c0-11.964844 9.734375-21.699218 21.699219-21.699218h288.207031c11.964843 0 21.699219 9.734374 21.699219 21.699218v23.707032c-.003907 2.210937-1.792969 4-4.003907 4zm-319.601562-8h315.605469v-19.707032c0-7.554687-6.148438-13.699218-13.703126-13.699218h-288.203124c-7.554688 0-13.703126 6.144531-13.703126 13.699218v19.707032zm0 0" fill="#690589"/><path d="m346.992188 351.304688h-189.984376c-2.210937 0-4-1.792969-4-4v-24.3125c0-2.207032 1.789063-4 4-4h189.984376c2.210937 0 4 1.792968 4 4v24.3125c0 2.207031-1.789063 4-4 4zm-185.984376-8h181.984376v-16.3125h-181.984376zm0 0" fill="#690589"/><path d="m292 162.277344-24.179688-31.449219c-.324218-.421875-.796874-.695313-1.324218-.765625-.535156-.0625-1.058594.078125-1.476563.398438l-10.035156 7.714843c-.421875.324219-.695313.800781-.765625 1.328125-.070312.523438.074219 1.054688.398438 1.476563l10.90625 14.1875h-60.675782c-1.105468 0-2 .894531-2 2v12.65625c0 1.105469.894532 2 2 2h60.675782l-10.90625 14.1875c-.675782.875-.507813 2.128906.367187 2.804687l10.035156 7.714844c.351563.269531.777344.414062 1.214844.414062.085937 0 .171875-.007812.261719-.015624.527344-.070313 1-.34375 1.324218-.765626l24.179688-31.449218c.550781-.71875.550781-1.71875 0-2.4375zm0 0" fill="#f4efed"/><path d="m266.234375 200.941406c-1.308594 0-2.609375-.4375-3.648437-1.238281l-10.039063-7.71875c-1.273437-.976563-2.085937-2.386719-2.292969-3.972656-.207031-1.59375.214844-3.167969 1.195313-4.441407l5.957031-7.75h-52.554688c-3.308593 0-6-2.691406-6-6v-12.65625c0-3.304687 2.691407-6 6-6h52.554688l-5.957031-7.75c-.980469-1.28125-1.402344-2.859374-1.191407-4.445312.203126-1.550781 1.039063-3 2.289063-3.964844l10.039063-7.714844c1.253906-.960937 2.796874-1.386718 4.386718-1.195312 1.636719.210938 3.046875 1.027344 4.019532 2.292969l24.183593 31.449219v.003906c1.652344 2.152344 1.652344 5.160156 0 7.3125l-24.179687 31.449218c-.976563 1.269532-2.390625 2.082032-3.980469 2.289063-.257813.035156-.519531.050781-.78125.050781zm-7.226563-14.078125 6.863282 5.277344 22.023437-28.644531-22.023437-28.644532-6.863282 5.277344 9.691407 12.601563c.925781 1.207031 1.089843 2.835937.414062 4.207031-.671875 1.367188-2.0625 2.230469-3.585937 2.230469h-58.675782v8.65625h58.675782c1.523437 0 2.914062.867187 3.585937 2.230469.675781 1.371093.511719 3-.414062 4.207031zm29.816407-22.15625.003906.003907zm0 0" fill="#690589"/><path d="m56.179688 104.128906h118.734374v118.734375h-118.734374zm0 0" fill="#ff4397"/><path d="m329.085938 129.21875v68.554688l59.367187 34.273437 59.367187-34.273437v-68.554688l-59.367187-34.273438zm0 0" fill="#fcc24c"/><g fill="#690589"><path d="m174.914062 226.863281h-118.734374c-2.210938 0-4-1.792969-4-4v-118.734375c0-2.207031 1.789062-4 4-4h118.734374c2.207032 0 4 1.792969 4 4v118.738282c0 2.207031-1.789062 3.996093-4 3.996093zm-114.734374-8h110.734374v-110.734375h-110.734374zm0 0"/><path d="m388.457031 236.046875c-.691406 0-1.382812-.175781-2-.535156l-59.371093-34.277344c-1.238282-.710937-2-2.035156-2-3.460937v-68.554688c0-1.425781.761718-2.75 2-3.460938l59.371093-34.277343c1.238281-.714844 2.761719-.714844 4 0l59.363281 34.277343c1.238282.710938 2 2.035157 2 3.460938v68.554688c0 1.425781-.761718 2.75-2 3.460937l-59.367187 34.277344c-.617187.359375-1.308594.535156-1.996094.535156zm-55.371093-40.585937 55.371093 31.96875 55.367188-31.96875v-63.933594l-55.367188-31.964844-55.371093 31.964844zm0 0"/><path d="m329.089844 201.773438c-1.382813 0-2.726563-.71875-3.46875-2-1.101563-1.914063-.449219-4.363282 1.464844-5.464844l57.371093-33.121094v-66.246094c0-2.207031 1.789063-4 4-4 2.207031 0 4 1.792969 4 4v68.550782c0 1.429687-.761719 2.75-2 3.464843l-59.371093 34.277344c-.628907.367187-1.316407.539063-1.996094.539063zm0 0"/><path d="m447.816406 201.773438c-.675781 0-1.363281-.171876-1.996094-.539063l-59.367187-34.277344c-1.914063-1.101562-2.566406-3.550781-1.464844-5.464843 1.109375-1.910157 3.546875-2.570313 5.464844-1.460938l59.367187 34.273438c1.914063 1.105468 2.570313 3.550781 1.464844 5.464843-.742187 1.285157-2.082031 2.003907-3.46875 2.003907zm0 0"/></g></svg>