<?xml version="1.0" encoding="iso-8859-1"?>
<!-- Generator: Adobe Illustrator 16.0.0, SVG Export Plug-In . SVG Version: 6.00 Build 0)  -->
<!DOCTYPE svg PUBLIC "-//W3C//DTD SVG 1.1//EN" "http://www.w3.org/Graphics/SVG/1.1/DTD/svg11.dtd">
<svg version="1.1" id="Capa_1" xmlns="http://www.w3.org/2000/svg" xmlns:xlink="http://www.w3.org/1999/xlink" x="0px" y="0px"
	 width="93.584px" height="93.584px" viewBox="0 0 93.584 93.584" style="enable-background:new 0 0 93.584 93.584;"
	 xml:space="preserve">
<g>
	<g>
		<path d="M90.895,42.292l-7.122-7.123c-0.993-0.995-2.341-1.553-3.745-1.553c-1.406,0-2.754,0.559-3.746,1.553l-1.97,1.971V0H1.137
			v93.584h73.175V66.632l16.583-16.85C92.965,47.715,92.965,44.36,90.895,42.292z M66.365,85.639H9.082V7.946h57.284v37.313
			l-6.957,6.96v-5.427H16.701v5.463h42.67L46.775,64.855c-0.622,0.623-1.08,1.393-1.331,2.234l-3.031,10.19
			c-0.554,1.864-0.042,3.881,1.333,5.256c1.006,1.009,2.359,1.552,3.745,1.552c0.504,0,1.012-0.072,1.51-0.221l10.191-3.03
			c0.844-0.251,1.611-0.708,2.235-1.331l4.937-4.934V85.639z M57.455,75.92l-10.191,3.031l3.031-10.191L73.16,45.886l7.172,7.171
			L57.455,75.92z M82.67,50.448l-7.121-7.123l4.25-4.252l7.123,7.122L82.67,50.448z"/>
		<rect x="16.701" y="17.575" width="42.708" height="5.462"/>
		<rect x="16.701" y="31.977" width="42.708" height="5.464"/>
	</g>
</g>
<g>
</g>
<g>
</g>
<g>
</g>
<g>
</g>
<g>
</g>
<g>
</g>
<g>
</g>
<g>
</g>
<g>
</g>
<g>
</g>
<g>
</g>
<g>
</g>
<g>
</g>
<g>
</g>
<g>
</g>
</svg>
